<svg width="639" height="280" viewBox="0 0 639 280" fill="none" xmlns="http://www.w3.org/2000/svg">
<rect width="639" height="280" fill="url(#paint0_linear)"/>
<path d="M272.929 127.838C272.929 111.251 268.199 102.73 258.734 102.262C254.97 102.085 251.294 102.684 247.719 104.073C244.865 105.094 242.944 106.105 241.934 107.126V146.725C247.985 150.523 253.36 152.288 258.042 152.011C267.958 151.356 272.921 143.305 272.921 127.837L272.929 127.838ZM284.594 128.526C284.594 136.954 282.618 143.951 278.643 149.511C274.212 155.807 268.072 159.049 260.222 159.227C254.304 159.416 248.203 157.561 241.937 153.674V189.662L231.788 186.042V106.16C233.454 104.117 235.596 102.362 238.195 100.874C244.235 97.3539 251.581 95.5437 260.216 95.4548L260.36 95.5992C268.255 95.4992 274.339 98.7411 278.611 105.316C282.597 111.345 284.596 119.077 284.596 128.521L284.594 128.526Z" fill="white"/>
<path d="M346.636 152.149C346.636 163.453 345.503 171.276 343.237 175.639C340.961 179.992 336.63 183.468 330.239 186.055C325.053 188.098 319.446 189.208 313.424 189.397L311.747 183.002C317.866 182.169 322.174 181.336 324.677 180.504C329.596 178.838 332.972 176.284 334.827 172.864C336.314 170.076 337.047 164.759 337.047 156.881V154.238C330.107 157.391 322.829 158.958 315.231 158.958C310.234 158.958 305.826 157.392 302.027 154.238C297.763 150.807 295.632 146.454 295.632 141.182V98.9403L305.781 95.4646V137.98C305.781 142.522 307.247 146.02 310.178 148.473C313.11 150.927 316.908 152.104 321.56 152.015C326.213 151.915 331.198 150.116 336.495 146.596V96.9946H346.645V152.144L346.636 152.149Z" fill="white"/>
<path d="M386.279 158.676C385.07 158.776 383.959 158.821 382.937 158.821C377.196 158.821 372.722 157.455 369.528 154.713C366.342 151.969 364.743 148.184 364.743 143.353V103.378H357.791V96.9931H364.743V80.0415L374.88 76.4325V96.9953H386.284V103.381H374.88V143.082C374.88 146.891 375.902 149.59 377.945 151.166C379.699 152.465 382.487 153.209 386.284 153.398V158.684L386.279 158.676Z" fill="white"/>
<path d="M447.684 157.845H437.535V118.667C437.535 114.681 436.602 111.25 434.747 108.385C432.605 105.142 429.629 103.521 425.809 103.521C421.157 103.521 415.337 105.975 408.356 110.883V157.841H398.207V64.1978L408.356 61V103.652C414.841 98.9325 421.924 96.5675 429.625 96.5675C435 96.5675 439.352 98.3777 442.681 101.987C446.023 105.596 447.689 110.092 447.689 115.464V157.831L447.684 157.845Z" fill="white"/>
<path d="M501.683 126.243C501.683 119.869 500.473 114.611 498.062 110.442C495.197 105.368 490.745 102.692 484.722 102.414C473.595 103.058 468.044 111.031 468.044 126.315C468.044 133.321 469.199 139.176 471.531 143.87C474.507 149.855 478.971 152.808 484.928 152.709C496.099 152.62 501.686 143.804 501.686 126.245L501.683 126.243ZM512.798 126.309C512.798 135.381 510.477 142.931 505.846 148.957C500.75 155.708 493.714 159.095 484.725 159.095C475.82 159.095 468.879 155.708 463.866 148.957C459.324 142.927 457.06 135.378 457.06 126.309C457.06 117.781 459.513 110.611 464.421 104.767C469.607 98.5707 476.429 95.4618 484.847 95.4618C493.275 95.4618 500.136 98.5707 505.422 104.767C510.329 110.608 512.783 117.777 512.783 126.309H512.798Z" fill="white"/>
<path d="M570.947 157.845H560.798V116.446C560.798 111.904 559.432 108.362 556.7 105.808C553.968 103.265 550.326 102.032 545.785 102.133C540.966 102.221 536.38 103.798 532.023 106.852V157.844H521.874V105.599C527.715 101.346 533.09 98.5702 537.994 97.2715C542.625 96.0617 546.71 95.4613 550.229 95.4613C552.639 95.4613 554.904 95.6945 557.036 96.1609C561.022 97.0825 564.264 98.7925 566.763 101.302C569.55 104.078 570.938 107.41 570.938 111.307V157.844L570.947 157.845Z" fill="white"/>
<path d="M131.563 64.5749C126.341 64.5992 121.354 65.0445 116.97 65.8212C104.04 68.1053 101.693 72.8843 101.693 81.7019V93.3447H132.235V97.2248H101.693H90.2322C81.3555 97.2248 73.5769 102.561 71.1504 112.707C68.3456 124.338 68.2215 131.606 71.1504 143.75C73.3217 152.793 78.5074 159.232 87.3842 159.232H97.8866V145.277C97.8866 135.195 106.61 126.298 116.968 126.298H147.477C155.97 126.298 162.754 119.305 162.754 110.781V81.6973C162.754 73.4198 155.77 67.2065 147.477 65.8167C142.229 64.9432 136.785 64.5464 131.562 64.5704L131.563 64.5749ZM115.044 73.9381C118.2 73.9381 120.776 76.5572 120.776 79.7766C120.776 82.9846 118.199 85.5798 115.044 85.5798C111.878 85.5798 109.313 82.9858 109.313 79.7766C109.313 76.5572 111.878 73.9381 115.044 73.9381Z" fill="url(#paint1_linear)"/>
<path d="M166.559 97.2157V110.784C166.559 121.3 157.644 130.15 147.477 130.15H116.969C108.612 130.15 101.692 137.302 101.692 145.667V174.751C101.692 183.028 108.891 187.897 116.969 190.267C126.638 193.11 135.914 193.624 147.477 190.267C155.167 188.041 162.754 183.559 162.754 174.751V163.108H132.246V159.228H162.754H178.031C186.908 159.228 190.221 153.036 193.308 143.746C196.497 134.178 196.361 124.972 193.308 112.702C191.114 103.865 186.924 97.2203 178.031 97.2203H166.571L166.559 97.2157ZM149.403 170.877C152.569 170.877 155.134 173.471 155.134 176.681C155.134 179.9 152.569 182.519 149.403 182.519C146.247 182.519 143.671 179.9 143.671 176.681C143.671 173.473 146.248 170.877 149.403 170.877Z" fill="url(#paint2_linear)"/>
<path opacity="0.4438" d="M173.552 210.063C173.552 212.168 169.239 214.187 161.562 215.675C153.885 217.164 143.473 218 132.616 218C121.758 218 111.346 217.164 103.669 215.675C95.9917 214.187 91.6787 212.168 91.6787 210.063C91.6787 207.958 95.9917 205.939 103.669 204.45C111.346 202.962 121.758 202.125 132.616 202.125C143.473 202.125 153.885 202.962 161.562 204.45C169.239 205.939 173.552 207.958 173.552 210.063Z" fill="url(#paint3_radial)"/>
<defs>
<linearGradient id="paint0_linear" x1="673" y1="294" x2="-105" y2="-36.0001" gradientUnits="userSpaceOnUse">
<stop stop-color="#0687F1"/>
<stop offset="1" stop-color="#1D9CFF" stop-opacity="0.5"/>
</linearGradient>
<linearGradient id="paint1_linear" x1="68.998" y1="64.5724" x2="139.456" y2="124.59" gradientUnits="userSpaceOnUse">
<stop stop-color="#5A9FD4"/>
<stop offset="1" stop-color="#306998"/>
</linearGradient>
<linearGradient id="paint2_linear" x1="148.682" y1="175.74" x2="123.366" y2="140.318" gradientUnits="userSpaceOnUse">
<stop stop-color="#FFD43B"/>
<stop offset="1" stop-color="#FFE873"/>
</linearGradient>
<radialGradient id="paint3_radial" cx="0" cy="0" r="1" gradientUnits="userSpaceOnUse" gradientTransform="translate(132.67 210.031) rotate(-90) scale(7.93775 34.8991)">
<stop stop-color="#B8B8B8" stop-opacity="0.498"/>
<stop offset="1" stop-color="#7F7F7F" stop-opacity="0"/>
</radialGradient>
</defs>
</svg>
